<?xml version="1.0" encoding="utf-8"?>
<!-- Generator: Adobe Illustrator 18.0.0, SVG Export Plug-In . SVG Version: 6.00 Build 0)  -->
<!DOCTYPE svg PUBLIC "-//W3C//DTD SVG 1.1//EN" "http://www.w3.org/Graphics/SVG/1.1/DTD/svg11.dtd">
<svg version="1.1" id="Capa_1" xmlns:sketch="http://www.bohemiancoding.com/sketch/ns"
	 xmlns="http://www.w3.org/2000/svg" xmlns:xlink="http://www.w3.org/1999/xlink" x="0px" y="0px" viewBox="0 0 32 32"
	 enable-background="new 0 0 32 32" xml:space="preserve">
<title>icon 78 document file java</title>
<desc>Created with Sketch.</desc>
<g>
	<path d="M15,16h-1c-1.1,0-2,0.9-2,2v1.5V23h1v-3h3v3h1v-3v-2C17,16.9,16.1,16,15,16z M16,19h-3v-1c0-0.6,0.4-1,1-1h1
		c0.6,0,1,0.4,1,1V19z"/>
	<path d="M10,21c0,0.5-0.4,1-1,1H8c-0.6,0-1-0.4-1-1v-1H6v1c0,1.1,0.9,2,2,2h1c1.1,0,2-0.9,2-2v-5h-1V21z"/>
	<polygon points="20.5,21.2 19,16 18,16 20,23 20.5,23 21,23 23,16 22,16 	"/>
	<path d="M29,13H19v-3l-6-7H2C0.9,3,0,3.9,0,5v23c0,1.1,0.9,2,2,2h15c1.1,0,2-0.9,2-2v-2h10c1.7,0,3-1.3,3-3v-7
		C32,14.3,30.7,13,29,13z M13,4.5l4.7,5.5H14c-0.5,0-1-0.5-1-1V4.5z M18,28c0,0.5-0.4,1-1,1H2c-0.5,0-1-0.4-1-1V5c0-0.5,0.4-1,1-1
		h10v5c0,1.1,0.9,2,2,2h4v2H6c-1.7,0-3,1.3-3,3v7c0,1.7,1.3,3,3,3h12V28z M31,23c0,1.1-0.9,2-2,2H6c-1.1,0-2-0.9-2-2v-7
		c0-1.1,0.9-2,2-2h23c1.1,0,2,0.9,2,2V23z"/>
	<path d="M27,16h-1c-1.1,0-2,0.9-2,2v1.5V23h1v-3h3v3h1v-3v-2C29,16.9,28.1,16,27,16z M28,19h-3v-1c0-0.6,0.4-1,1-1h1
		c0.6,0,1,0.4,1,1V19z"/>
</g>
</svg>
