<?xml version="1.0" encoding="iso-8859-1"?>
<!-- Generator: Adobe Illustrator 18.0.0, SVG Export Plug-In . SVG Version: 6.00 Build 0)  -->
<!DOCTYPE svg PUBLIC "-//W3C//DTD SVG 1.1//EN" "http://www.w3.org/Graphics/SVG/1.1/DTD/svg11.dtd">
<svg version="1.1" id="Capa_1" xmlns="http://www.w3.org/2000/svg" xmlns:xlink="http://www.w3.org/1999/xlink" x="0px" y="0px"
	 viewBox="0 0 34.5 60.001" style="enable-background:new 0 0 34.5 60.001;" xml:space="preserve">
<g id="Shape_355">
	<g>
		<path style="fill-rule:evenodd;clip-rule:evenodd;" d="M16.757,5.001h1.971c0.544,0,0.986-0.448,0.986-1.001
			C19.714,3.449,19.273,3,18.729,3h-1.971C16.213,3,15.771,3.449,15.771,4C15.771,4.553,16.213,5.001,16.757,5.001z M32.529,0H1.971
			C0.883,0,0,0.895,0,1.999v56.003c0,1.102,0.883,1.999,1.971,1.999h30.557c1.089,0,1.971-0.897,1.971-1.999V1.999
			C34.5,0.895,33.617,0,32.529,0z M32.529,57.001c0,0.551-0.441,1.001-0.986,1.001H2.957c-0.544,0-0.986-0.45-0.986-1.001V3
			c0-0.553,0.441-1.001,0.986-1.001h28.586c0.544,0,0.986,0.448,0.986,1.001V57.001z M28.586,6.001H5.914
			C4.826,6.001,3.943,6.897,3.943,8v38c0,1.106,0.883,1.999,1.971,1.999h22.671c1.089,0,1.971-0.893,1.971-1.999V8
			C30.557,6.897,29.674,6.001,28.586,6.001z M28.586,45c0,0.553-0.441,1-0.986,1H6.9c-0.544,0-0.986-0.447-0.986-1V9.001
			C5.914,8.448,6.356,8,6.9,8h20.7c0.544,0,0.986,0.448,0.986,1.001V45z M17.743,50c-1.633,0-2.957,1.343-2.957,3
			s1.324,3.002,2.957,3.002S20.7,54.657,20.7,53S19.376,50,17.743,50z M17.743,54.001c-0.544,0-0.986-0.45-0.986-1.001
			c0-0.551,0.441-1,0.986-1c0.544,0,0.986,0.448,0.986,1C18.729,53.551,18.287,54.001,17.743,54.001z"/>
	</g>
</g>
<g>
</g>
<g>
</g>
<g>
</g>
<g>
</g>
<g>
</g>
<g>
</g>
<g>
</g>
<g>
</g>
<g>
</g>
<g>
</g>
<g>
</g>
<g>
</g>
<g>
</g>
<g>
</g>
<g>
</g>
</svg>
