<?xml version="1.0" encoding="utf-8"?>
<!-- Generator: Adobe Illustrator 18.0.0, SVG Export Plug-In . SVG Version: 6.00 Build 0)  -->
<!DOCTYPE svg PUBLIC "-//W3C//DTD SVG 1.1//EN" "http://www.w3.org/Graphics/SVG/1.1/DTD/svg11.dtd">
<svg version="1.1" id="Layer_1" xmlns="http://www.w3.org/2000/svg" xmlns:xlink="http://www.w3.org/1999/xlink" x="0px" y="0px"
	 width="75.8px" height="78px" viewBox="0 0 75.8 78" enable-background="new 0 0 75.8 78" xml:space="preserve">
<path fill="#474747" d="M61.9,75.9H14.4c-6.6,0-12-5.4-12-12V14.4c0-6.6,5.4-12,12-12h47.5c6.6,0,12,5.4,12,12v49.5
	C73.9,70.5,68.5,75.9,61.9,75.9z"/>
<path fill="#FFFFFF" stroke="#FFFFFF" stroke-miterlimit="10" d="M56.9,49.5L56.9,49.5c-1.4,1.4-3.7,1.4-5.1,0L36.6,34.7
	c-1.5-1.4-1.5-3.7,0-5.2l0,0c1.4-1.4,3.7-1.4,5.1,0l15.2,14.8C58.4,45.8,58.4,48.1,56.9,49.5z"/>
<path fill="#FFFFFF" stroke="#FFFFFF" stroke-miterlimit="10" d="M21.3,49.6L21.3,49.6c1.4,1.4,3.7,1.4,5.1,0l15.2-14.8
	c1.5-1.4,1.5-3.7,0-5.2l0,0c-1.4-1.4-3.7-1.4-5.1,0L21.4,44.4C19.9,45.8,19.9,48.1,21.3,49.6z"/>
</svg>
