<?xml version="1.0" encoding="utf-8"?>
<!-- Generator: Adobe Illustrator 18.0.0, SVG Export Plug-In . SVG Version: 6.00 Build 0)  -->
<!DOCTYPE svg PUBLIC "-//W3C//DTD SVG 1.1//EN" "http://www.w3.org/Graphics/SVG/1.1/DTD/svg11.dtd">
<svg version="1.1" id="Layer_1" xmlns="http://www.w3.org/2000/svg" xmlns:xlink="http://www.w3.org/1999/xlink" x="0px" y="0px"
	 width="40px" height="40px" viewBox="0 0 40 40" enable-background="new 0 0 40 40" xml:space="preserve">
<path fill="#484848" d="M32.3,38.8H8c-3.4,0-6.2-2.8-6.2-6.2V7.2C1.8,3.8,4.6,1,8,1h24.4c3.4,0,6.2,2.8,6.2,6.2v25.4
	C38.5,36,35.7,38.8,32.3,38.8z"/>
<path fill="#FFFFFF" stroke="#FFFFFF" stroke-miterlimit="10" d="M29.8,25.2L29.8,25.2c-0.7,0.7-1.9,0.7-2.6,0l-7.8-7.6
	c-0.8-0.7-0.8-1.9,0-2.7l0,0c0.7-0.7,1.9-0.7,2.6,0l7.8,7.6C30.5,23.3,30.5,24.5,29.8,25.2z"/>
<path fill="#FFFFFF" stroke="#FFFFFF" stroke-miterlimit="10" d="M11.5,25.3L11.5,25.3c0.7,0.7,1.9,0.7,2.6,0l7.8-7.6
	c0.8-0.7,0.8-1.9,0-2.7l0,0c-0.7-0.7-1.9-0.7-2.6,0l-7.8,7.6C10.8,23.3,10.8,24.5,11.5,25.3z"/>
</svg>
